<svg width="135" height="95" viewBox="0 0 135 95" fill="none" xmlns="http://www.w3.org/2000/svg">
<path d="M70.0638 38.5742C70.0638 39.8639 68.9913 40.9192 67.6804 40.9192C66.3695 40.9192 65.297 39.8639 65.297 38.5742C65.297 37.2844 66.31 36.2291 67.6804 36.2291C69.0509 36.2584 70.0638 37.3137 70.0638 38.5742ZM60.2919 43.2643C60.2919 43.4694 60.2919 43.8505 60.2919 43.8505C60.2919 43.8505 59.1598 42.4142 56.7466 42.4142C52.7842 42.4142 49.656 45.4041 49.656 49.5079C49.656 53.6118 52.7246 56.6017 56.7466 56.6017C59.1896 56.6017 60.2919 55.136 60.2919 55.136V55.7516C60.2919 56.0447 60.5004 56.2499 60.7984 56.2499H63.7478V42.7659C63.7478 42.7659 61.0367 42.7659 60.7984 42.7659C60.5004 42.7659 60.2919 43.0297 60.2919 43.2643ZM60.2919 51.9116C59.7556 52.7031 58.6533 53.3773 57.3425 53.3773C55.0186 53.3773 53.2311 51.9409 53.2311 49.5079C53.2311 47.0749 55.0186 45.6386 57.3425 45.6386C58.6235 45.6386 59.7854 46.3421 60.2919 47.1043V51.9116ZM65.9525 42.7659H69.468V56.2499H65.9525V42.7659ZM118.238 42.4142C115.825 42.4142 114.693 43.8505 114.693 43.8505V36.2877H111.177V56.2792C111.177 56.2792 113.888 56.2792 114.127 56.2792C114.425 56.2792 114.633 56.0154 114.633 55.7809V55.1653C114.633 55.1653 115.765 56.631 118.179 56.631C122.141 56.631 125.269 53.6118 125.269 49.5372C125.299 45.4334 122.171 42.4142 118.238 42.4142ZM117.672 53.3479C116.331 53.3479 115.259 52.6737 114.723 51.8823V47.0749C115.259 46.3714 116.451 45.6093 117.672 45.6093C119.996 45.6093 121.783 47.0456 121.783 49.4786C121.783 51.9116 119.996 53.3479 117.672 53.3479ZM109.39 48.2475V56.2792H105.874V48.6578C105.874 46.4301 105.159 45.5214 103.163 45.5214C102.091 45.5214 101.018 46.049 100.333 46.8404V56.2499H96.8174V42.7659H99.5881C99.886 42.7659 100.095 43.0297 100.095 43.2643V43.8505C101.107 42.7952 102.478 42.4142 103.819 42.4142C105.338 42.4142 106.619 42.8539 107.662 43.7039C108.913 44.7006 109.39 45.9904 109.39 48.2475ZM88.3265 42.4142C85.9133 42.4142 84.7812 43.8505 84.7812 43.8505V36.2877H81.2657V56.2792C81.2657 56.2792 83.9768 56.2792 84.2152 56.2792C84.5131 56.2792 84.7217 56.0154 84.7217 55.7809V55.1653C84.7217 55.1653 85.8538 56.631 88.267 56.631C92.2293 56.631 95.3575 53.6118 95.3575 49.5372C95.4171 45.4334 92.3187 42.4142 88.3265 42.4142ZM87.7605 53.3479C86.4198 53.3479 85.3473 52.6737 84.811 51.8823V47.0749C85.3473 46.3714 86.539 45.6093 87.7605 45.6093C90.0843 45.6093 91.8718 47.0456 91.8718 49.4786C91.8718 51.9116 90.0843 53.3479 87.7605 53.3479ZM78.2567 42.4142C79.3292 42.4142 79.8655 42.5901 79.8655 42.5901V45.7852C79.8655 45.7852 76.9458 44.8178 75.1285 46.8698V56.3086H71.613V42.7659C71.613 42.7659 74.3241 42.7659 74.5625 42.7659C74.8604 42.7659 75.0689 43.0297 75.0689 43.2643V43.8505C75.7541 43.0884 77.1842 42.4142 78.2567 42.4142ZM41.91 55.0481C41.7312 54.6084 41.5525 54.1394 41.3737 53.7583C41.0758 53.1134 40.7779 52.4979 40.5395 51.9409L40.5098 51.9116C38.0072 46.518 35.2961 41.0658 32.436 35.7015L32.3168 35.4963C32.0189 34.9687 31.721 34.3824 31.4529 33.7961C31.0954 33.1512 30.7378 32.477 30.142 31.8322C28.9801 30.3958 27.3117 29.6044 25.5242 29.6044C23.7068 29.6044 22.0683 30.3958 20.8468 31.7442C20.3105 32.3891 19.8934 33.0633 19.5359 33.7082C19.238 34.2945 18.9401 34.8514 18.6719 35.4084L18.5528 35.6135C15.7523 41.0071 13.0114 46.4594 10.479 51.8237L10.4492 51.8823C10.1811 52.4685 9.91297 53.0548 9.61505 53.6997C9.43629 54.0808 9.25754 54.5205 9.07879 54.9895C8.60211 56.3086 8.45315 57.569 8.6319 58.8588C9.0192 61.5556 10.8663 63.8127 13.3689 64.8093C14.3222 65.1904 15.3054 65.3956 16.3183 65.3956C16.6163 65.3956 16.9738 65.3663 17.2717 65.337C18.4634 65.1904 19.7147 64.8093 20.9064 64.1058C22.396 63.2851 23.826 62.0832 25.4348 60.3831C27.0436 62.1125 28.5034 63.2851 29.9632 64.1058C31.1549 64.78 32.4062 65.1904 33.5979 65.337C33.8958 65.3663 34.2534 65.3956 34.5513 65.3956C35.5642 65.3956 36.607 65.2197 37.5007 64.8093C40.0629 63.8127 41.8504 61.497 42.2377 58.8588C42.5356 57.6276 42.3867 56.3672 41.91 55.0481ZM25.4646 56.8948C23.4983 54.4618 22.2172 52.1461 21.7703 50.2114C21.5916 49.3907 21.5618 48.6579 21.6512 48.013C21.7108 47.4267 21.9491 46.9284 22.247 46.518C22.9322 45.5507 24.0941 44.9351 25.4646 44.9351C26.835 44.9351 28.0267 45.5214 28.6822 46.518C28.9801 46.9577 29.1886 47.456 29.278 48.013C29.3972 48.6579 29.3376 49.42 29.1589 50.2114C28.712 52.1461 27.4309 54.4325 25.4646 56.8948ZM40.0033 58.595C39.7351 60.471 38.4839 62.0832 36.6963 62.7867C35.8323 63.1385 34.879 63.2557 33.9256 63.1385C33.0021 63.0212 32.1083 62.7574 31.1549 62.2005C29.8441 61.497 28.5332 60.3831 26.984 58.7122C29.3972 55.8102 30.857 53.1427 31.3933 50.7684C31.6614 49.6545 31.6912 48.6579 31.572 47.7198C31.4231 46.8111 31.0954 45.9904 30.5889 45.2868C29.4568 43.6746 27.5501 42.7366 25.4348 42.7366C23.3195 42.7366 21.4128 43.7039 20.2807 45.2868C19.7743 45.9904 19.4465 46.8404 19.2976 47.7198C19.1486 48.6579 19.1784 49.6838 19.4763 50.7684C20.0126 53.1427 21.532 55.8395 23.8856 58.7415C22.396 60.3831 21.0553 61.497 19.7147 62.2298C18.7613 62.7574 17.8675 63.0506 16.944 63.1678C15.9608 63.2851 15.0075 63.1385 14.1733 62.8161C12.3857 62.1125 11.1047 60.471 10.8663 58.6243C10.7472 57.7156 10.8365 56.8362 11.194 55.8395C11.3132 55.4878 11.492 55.136 11.6707 54.6963C11.9389 54.1101 12.207 53.5238 12.5049 52.9082L12.5347 52.8496C15.0373 47.5146 17.7484 42.0331 20.5489 36.7274L20.668 36.5222C20.9659 35.9946 21.2639 35.4084 21.532 34.8807C21.8299 34.2945 22.1576 33.7668 22.5449 33.2978C23.3195 32.4477 24.3325 31.9787 25.4646 31.9787C26.5967 31.9787 27.6096 32.4477 28.3843 33.2978C28.7716 33.7668 29.0993 34.2945 29.3972 34.8807C29.6951 35.4084 29.993 35.9946 30.2612 36.5222L30.3803 36.7274C33.151 42.0624 35.8621 47.544 38.3647 52.8789V52.9082C38.6626 53.4945 38.901 54.1394 39.1989 54.6963C39.3776 55.136 39.5564 55.4878 39.6756 55.8395C40.0331 56.7483 40.1522 57.657 40.0033 58.595Z" fill="#4F5665"/>
</svg>
