<svg width="24" height="24" viewBox="0 0 24 24" fill="none" xmlns="http://www.w3.org/2000/svg">
<path d="M16.5787 12.2968C16.5609 10.1724 18.3173 9.13993 18.3944 9.09246C17.3975 7.64458 15.8547 7.44283 15.3147 7.42503C14.0211 7.28855 12.7632 8.20237 12.1045 8.20237C11.434 8.20237 10.4133 7.44283 9.32148 7.46063C7.91514 7.48437 6.59188 8.29731 5.87388 9.56717C4.38446 12.1484 5.49411 15.9461 6.92418 18.0349C7.64218 19.0555 8.47293 20.2007 9.5707 20.1592C10.6388 20.1177 11.0423 19.4768 12.33 19.4768C13.6117 19.4768 13.9855 20.1592 15.1011 20.1355C16.2523 20.1177 16.9703 19.1089 17.6646 18.0764C18.4894 16.9074 18.8217 15.7503 18.8335 15.691C18.8039 15.6791 16.6024 14.8365 16.5787 12.2968Z" fill="#2948FF"/>
<path d="M14.4722 6.05435C15.0478 5.33635 15.4395 4.35725 15.3327 3.36035C14.5019 3.39596 13.4575 3.93594 12.8582 4.64208C12.3301 5.26514 11.8554 6.27984 11.9741 7.2352C12.9116 7.30641 13.8729 6.76048 14.4722 6.05435Z" fill="#2948FF"/>
</svg>
