<svg width="136" height="95" viewBox="0 0 136 95" fill="none" xmlns="http://www.w3.org/2000/svg">
<path d="M31.5925 57.0438C26.5264 57.0438 22.4208 52.936 22.4208 47.869C22.4208 42.8017 26.5264 38.6978 31.5925 38.6978C33.3781 38.6978 35.0452 39.2071 36.4535 40.0898L31.5925 47.869L40.7438 42.5849C39.7496 41.0007 38.3235 39.6357 36.5992 38.5999C34.405 37.2863 31.3527 36.4733 27.9777 36.4733C23.1632 36.4733 18.9395 38.2228 16.584 40.8428C14.8401 42.7795 13.8018 45.2171 13.8018 47.8689C13.8018 50.5225 14.8401 52.9618 16.584 54.9C18.9456 57.5232 23.1064 59.2625 27.8415 59.2625C32.5758 59.2625 36.7354 57.5219 39.0985 54.9C39.2279 54.7556 39.3532 54.6099 39.4717 54.4587L39.1149 53.1212C37.4546 55.4911 34.7047 57.0438 31.5925 57.0438" fill="#4F5665"/>
<path d="M61.9327 58.7107L58.0918 44.3823C57.4748 42.0669 55.3664 40.3651 52.8562 40.3651C52.2051 40.3651 51.5813 40.4814 51.0025 40.6919L42.7337 43.6987H51.2381L52.6914 49.1261C51.2817 47.9128 49.4457 47.1746 47.4354 47.1746C43.4433 47.1746 40.2112 49.8497 40.2112 53.1496C40.2112 56.4498 43.4433 59.1289 47.4354 59.1289C50.3092 59.1289 52.8507 57.7219 54.4184 55.5604L55.2615 58.7107H61.9327ZM50.2166 56.4852C48.3751 56.4852 46.8824 54.9938 46.8824 53.1496C46.8824 51.3082 48.3751 49.8154 50.2166 49.8154C52.058 49.8154 53.5522 51.3082 53.5522 53.1496C53.5522 54.9938 52.058 56.4852 50.2166 56.4852Z" fill="#4F5665"/>
<path d="M77.5931 40.3676C77.0892 40.3676 76.6125 40.479 76.1875 40.6785L70.8784 43.1527C70.6155 41.5723 69.2426 40.3676 67.5864 40.3676C67.0852 40.3676 66.6071 40.479 66.1767 40.6785L59.6949 43.6988H64.2522V58.7109H70.9234V45.3689C70.9234 44.4483 71.6684 43.6989 72.5918 43.6989C73.5098 43.6989 74.2603 44.4483 74.2603 45.3689V58.7109H80.9287V43.6988C80.9287 41.8577 79.4346 40.3677 77.5931 40.3677" fill="#4F5665"/>
<path d="M119.429 40.3676C118.924 40.3676 118.444 40.479 118.012 40.6785L112.709 43.1527C112.447 41.5723 111.074 40.3676 109.418 40.3676C108.917 40.3676 108.439 40.479 108.007 40.6785L101.528 43.6988H106.084V58.7109H112.754V45.3689C112.754 44.4483 113.5 43.6989 114.423 43.6989C115.344 43.6989 116.089 44.4483 116.089 45.3689V58.7109H122.763V43.6988C122.763 41.8577 121.268 40.3677 119.429 40.3677" fill="#4F5665"/>
<path d="M102.607 49.8153C102.607 55.0333 98.3776 59.2624 93.1611 59.2624C87.9405 59.2624 83.7087 55.0333 83.7087 49.8153C83.7087 44.5987 87.9405 40.3676 93.1611 40.3676C98.3776 40.3676 102.607 44.5988 102.607 49.8153V49.8153ZM93.552 43.2349C93.2551 42.1232 92.1123 41.4633 91.0009 41.7621C89.8909 42.0597 89.2276 43.2031 89.5258 44.3147L92.7661 56.3954C93.0657 57.5081 94.2057 58.1673 95.3171 57.8731C96.4286 57.5721 97.0891 56.4294 96.7909 55.318L93.552 43.2349Z" fill="#4F5665"/>
</svg>
