<svg width="135" height="95" viewBox="0 0 135 95" fill="none" xmlns="http://www.w3.org/2000/svg">
<path d="M65.9516 13.4913H68.0676C78.3601 14.0713 85.6987 17.9774 91.1394 23.4517C96.5802 28.9259 100.602 36.146 101.139 46.4764V48.523C100.617 59.0186 96.524 65.9457 91.1394 71.5819C85.483 76.9355 78.5295 80.9918 68.0334 81.5078H65.9516C55.6603 80.9266 48.3204 77.0221 42.8798 71.5476C37.4391 66.0734 33.4172 58.8535 32.8798 48.523V46.4764C32.9065 46.4689 32.9196 46.4479 32.9139 46.4082C33.4285 36.1171 37.4723 28.8221 42.8799 23.4176C48.3123 17.9879 55.727 14.0538 65.9516 13.4913V13.4913ZM59.2621 18.3691C57.2342 18.9118 55.4156 19.601 53.7673 20.4157C48.75 22.8953 44.6124 26.4428 41.7194 30.99C38.8957 35.4285 36.4508 41.1382 36.8048 48.6252C37.0281 53.3454 38.1057 57.3159 39.8081 60.7005C43.17 67.3832 48.2882 72.3072 55.3715 75.3C58.8742 76.7799 63.2144 77.818 68.1019 77.5853C72.79 77.3622 76.8523 76.3089 80.218 74.6177C86.8143 71.3029 92.0128 66.1884 94.894 59.1314C96.3512 55.5617 97.4532 51.4378 97.2149 46.4421C96.764 36.9787 92.9124 30.562 87.8293 25.6687C85.3142 23.2475 82.2856 21.188 78.7167 19.6994C75.2539 18.2551 70.7459 17.1842 65.9179 17.414C63.5443 17.5269 61.3053 17.8223 59.2621 18.3691V18.3691Z" fill="#4F5665"/>
<path d="M63.8697 38.6649C64.9511 39.3806 66.0571 40.0717 67.078 40.848C64.7718 42.2952 62.511 43.7879 60.2179 45.2483C60.5661 45.5143 60.962 45.7326 61.31 45.9987C63.6222 44.5346 65.9351 43.0715 68.2385 41.5984C69.2715 42.2374 70.2886 42.8924 71.242 43.611C68.934 45.0679 66.7033 46.602 64.416 48.0794C64.7549 48.3548 65.1703 48.5535 65.5421 48.7958C67.9062 47.3496 70.2115 45.8445 72.5387 44.3615V39.5177H77.6582V49.1711C79.1029 49.2505 80.6959 49.1824 82.1977 49.2049V53.7419H72.5387V49.1367C69.7008 50.8599 66.7926 52.8085 63.938 54.6286C60.9652 52.6994 58.1002 50.6619 55.1325 48.7275C54.2728 51.451 52.231 53.4998 48.8524 53.7419C46.7454 53.8925 44.3511 53.6293 41.9241 53.7419V39.5177C44.9583 39.7186 48.29 39.1122 50.6955 39.8587C52.8224 40.519 54.3303 42.2151 55.0299 44.3273C57.9998 42.4631 60.922 40.5515 63.8697 38.6649V38.6649ZM46.8046 44.0886V49.2051C48.0241 49.2111 48.9516 49.2819 49.6714 48.7277C50.7423 47.9033 50.958 45.8597 50.0127 44.7707C49.3818 44.0441 48.3166 43.8916 46.8386 43.9862C46.7991 43.9919 46.8016 44.0402 46.8046 44.0886V44.0886ZM83.5284 39.5177H88.6479V49.2051H93.153V53.742H83.494V39.62C83.4914 39.5717 83.4886 39.5234 83.5284 39.5177V39.5177Z" fill="#4F5665"/>
</svg>
