<svg width="48" height="49" viewBox="0 0 48 49" fill="none" xmlns="http://www.w3.org/2000/svg">
<circle cx="24" cy="24.5" r="24" fill="white"/>
<path d="M25.4347 24.7427C26.0234 24.233 26.4957 23.6027 26.8193 22.8944C27.143 22.1862 27.3105 21.4166 27.3105 20.6378C27.3105 19.1746 26.7292 17.7713 25.6945 16.7366C24.6599 15.7019 23.2565 15.1206 21.7933 15.1206C20.33 15.1206 18.9267 15.7019 17.892 16.7366C16.8573 17.7713 16.276 19.1746 16.276 20.6378C16.276 21.4166 16.4435 22.1862 16.7672 22.8944C17.0909 23.6027 17.5631 24.233 18.1519 24.7427C16.6072 25.4421 15.2967 26.5717 14.377 27.9962C13.4573 29.4208 12.9673 31.0801 12.9657 32.7758C12.9657 33.0684 13.0819 33.3491 13.2889 33.556C13.4958 33.763 13.7765 33.8792 14.0691 33.8792C14.3618 33.8792 14.6425 33.763 14.8494 33.556C15.0563 33.3491 15.1726 33.0684 15.1726 32.7758C15.1726 31.0199 15.8701 29.3359 17.1117 28.0942C18.3534 26.8526 20.0374 26.1551 21.7933 26.1551C23.5492 26.1551 25.2332 26.8526 26.4748 28.0942C27.7164 29.3359 28.414 31.0199 28.414 32.7758C28.414 33.0684 28.5302 33.3491 28.7372 33.556C28.9441 33.763 29.2248 33.8792 29.5174 33.8792C29.8101 33.8792 30.0907 33.763 30.2977 33.556C30.5046 33.3491 30.6209 33.0684 30.6209 32.7758C30.6192 31.0801 30.1293 29.4208 29.2096 27.9962C28.2899 26.5717 26.9793 25.4421 25.4347 24.7427V24.7427ZM21.7933 23.9482C21.1385 23.9482 20.4985 23.754 19.9541 23.3903C19.4098 23.0266 18.9855 22.5095 18.7349 21.9047C18.4844 21.2998 18.4188 20.6342 18.5465 19.992C18.6743 19.3499 18.9895 18.76 19.4525 18.2971C19.9155 17.8341 20.5053 17.5188 21.1475 17.3911C21.7896 17.2634 22.4552 17.3289 23.0601 17.5795C23.665 17.83 24.182 18.2543 24.5457 18.7987C24.9095 19.3431 25.1036 19.9831 25.1036 20.6378C25.1036 21.5158 24.7548 22.3578 24.134 22.9786C23.5132 23.5994 22.6712 23.9482 21.7933 23.9482ZM34.7146 21.333C34.6121 21.2296 34.49 21.1475 34.3556 21.0915C34.2211 21.0355 34.0769 21.0066 33.9312 21.0066C33.7855 21.0066 33.6413 21.0355 33.5068 21.0915C33.3724 21.1475 33.2503 21.2296 33.1478 21.333L30.9409 23.5399L30.2567 22.8447C30.1541 22.7413 30.0321 22.6592 29.8976 22.6032C29.7632 22.5472 29.6189 22.5183 29.4733 22.5183C29.3276 22.5183 29.1834 22.5472 29.0489 22.6032C28.9144 22.6592 28.7924 22.7413 28.6898 22.8447C28.4843 23.0515 28.3689 23.3312 28.3689 23.6227C28.3689 23.9142 28.4843 24.1939 28.6898 24.4006L30.1684 25.8792C30.3752 26.0847 30.6549 26.2001 30.9464 26.2001C31.2379 26.2001 31.5176 26.0847 31.7243 25.8792L34.6705 22.933C34.7819 22.833 34.8718 22.7113 34.9347 22.5754C34.9975 22.4395 35.0321 22.2922 35.0362 22.1425C35.0403 21.9928 35.014 21.8439 34.9587 21.7047C34.9034 21.5655 34.8204 21.4391 34.7146 21.333V21.333Z" fill="#2948FF"/>
</svg>
