<svg width="135" height="95" viewBox="0 0 135 95" fill="none" xmlns="http://www.w3.org/2000/svg">
<path d="M83.2465 22.634C86.1478 21.2091 87.5856 21.3961 87.618 22.8404C87.6568 24.7167 87.3794 27.2118 87.1794 29.0172C86.1027 38.8298 84.3038 46.848 84.1684 56.923C88.9073 44.6545 92.8791 36.1276 97.9984 25.6258C99.6234 22.2794 100.661 22.9049 101.996 22.3117C107.193 19.997 107.386 21.4154 106.709 24.246C104.188 34.7298 97.734 67.7387 96.7477 72.8215C96.4639 74.2921 94.865 73.6686 94.4523 73.0936C92.6019 70.5339 90.5129 70.4939 90.7449 68.7917C91.9055 60.3176 96.0835 39.0561 97.1732 34.0463C91.6217 45.4275 85.8641 59.6555 82.9046 67.7227C82.2792 69.4358 81.1379 69.3101 80.4288 68.0567C79.4293 66.2959 77.4887 65.397 77.1662 63.3164C76.154 56.7013 78.3269 44.0923 78.6297 36.1153C75.606 44.8292 70.5317 61.747 68.3072 69.3906C67.3917 72.5532 64.3355 72.0373 65.1478 68.9548C68.5263 56.1273 75.8058 33.4402 78.9522 25.284C79.694 23.3625 81.6345 23.427 83.2465 22.634Z" fill="#4F5665"/>
<path d="M64.8194 21.0608C63.8394 20.8223 60.996 22.3569 59.2487 22.6598C58.6942 22.7565 58.1654 23.3432 57.9784 23.7624C55.1801 30.1907 52.6721 36.3184 50.4992 41.9007C47.7203 42.3753 44.4708 43.0001 40.8344 43.8169C43.4391 37.1353 46.0698 30.5452 48.6359 24.2072C49.8996 21.0865 46.5727 20.79 45.2831 23.9493C43.6067 28.0565 40.4668 35.7517 36.9915 44.7209C34.4382 45.3469 31.7303 46.0626 28.8997 46.8802C26.8429 47.474 26.7592 48.022 27.6489 49.2555C28.1389 49.9423 29.1512 49.8731 29.6154 50.3625C30.8147 51.6308 31.5433 53.1478 33.6902 53.3774C31.7753 58.5 29.8603 63.7826 28.126 68.869C27.0363 72.0619 30.1376 72.7149 31.3305 69.3364C33.2518 63.8901 35.2764 58.378 37.3589 52.8822C39.0933 52.4791 43.2907 51.5751 47.1657 50.7344C44.0902 59.1639 42.0655 65.5658 41.2984 68.6819C41.1566 69.2815 41.3951 69.6142 41.524 69.8586C42.562 71.3692 43.5486 71.4311 44.8832 73.2989C45.2444 73.8083 46.4566 74.083 46.8691 72.8289C49.7189 64.2207 52.6526 56.1439 55.3863 48.9032C56.5211 48.6549 58.5649 48.1617 59.8158 46.2951C62.0401 42.9822 62.6784 43.6542 63.2137 42.647C63.8843 41.3827 63.4393 40.1957 61.0667 40.4889C61.0667 40.4889 60.1705 40.5527 58.5134 40.7417C61.144 33.9685 63.4458 28.2237 65.1028 23.8458C65.6705 22.3633 65.7414 21.2801 64.8194 21.0608Z" fill="#4F5665"/>
<path d="M60.938 64.9911C61.5505 66.5392 63.4654 66.0704 62.7368 64.202C61.9953 62.2986 60.1513 56.5686 59.6677 54.7226C59.0101 52.2352 61.8599 52.9154 60.4156 54.5416C59.1778 55.94 58.3524 56.5003 56.0635 59.1593C53.852 61.7261 54.4517 65.057 56.8179 65.7927C59.4872 66.6231 61.8406 63.6817 63.2977 61.5237C64.7097 59.4341 63.3428 58.2084 61.9179 59.4438C61.0023 60.2381 59.9449 61.4579 58.8746 62.1156C58.0042 62.6449 57.3207 62.0763 58.4813 60.4786C59.8289 58.6288 61.3376 57.0789 62.4594 55.3309C64.7484 51.7685 60.2221 49.7151 58.2749 52.029C57.2304 53.2625 57.4948 54.4734 57.7785 55.5127C58.2364 57.1774 59.9385 62.4915 60.938 64.9911Z" fill="#4F5665"/>
</svg>
