<svg width="135" height="95" viewBox="0 0 135 95" fill="none" xmlns="http://www.w3.org/2000/svg">
<path d="M118.67 65.7902V63.3094H115.59V59.4525L115.486 59.4844L112.592 60.3697L112.535 60.3871V63.3094H107.968V61.6816C107.968 60.9235 108.138 60.3434 108.472 59.9565C108.803 59.5743 109.278 59.38 109.883 59.38C110.318 59.38 110.769 59.4825 111.222 59.6846L111.335 59.7353V57.1226L111.282 57.103C110.859 56.951 110.284 56.8744 109.571 56.8744C108.672 56.8744 107.856 57.0699 107.144 57.4574C106.431 57.8455 105.871 58.3995 105.478 59.104C105.087 59.8076 104.888 60.6202 104.888 61.5195V63.3094H102.743V65.7902H104.888V76.2416H107.968V65.7902H112.535V72.4319C112.535 75.1673 113.825 76.5535 116.37 76.5535C116.788 76.5535 117.228 76.5044 117.678 76.4084C118.135 76.3099 118.446 76.2115 118.63 76.1065L118.67 76.0826V73.5787L118.545 73.6616C118.378 73.7731 118.17 73.8641 117.926 73.9316C117.681 74.0005 117.476 74.0352 117.317 74.0352C116.721 74.0352 116.28 73.8745 116.007 73.5575C115.73 73.2377 115.59 72.6782 115.59 71.8958V65.7902H118.67ZM95.8661 74.0354C94.7484 74.0354 93.8672 73.6647 93.2461 72.9347C92.6213 72.2009 92.3047 71.1547 92.3047 69.8256C92.3047 68.4543 92.6213 67.3811 93.2464 66.6343C93.8678 65.8925 94.7407 65.516 95.8411 65.516C96.9089 65.516 97.7588 65.8756 98.3676 66.5853C98.9797 67.2987 99.2901 68.3634 99.2901 69.7507C99.2901 71.1551 98.9981 72.2338 98.4222 72.9553C97.8504 73.6716 96.9906 74.0354 95.8661 74.0354ZM96.0033 62.9978C93.8707 62.9978 92.1769 63.6226 90.9694 64.855C89.7626 66.0876 89.1506 67.7932 89.1506 69.925C89.1506 71.9498 89.7479 73.5784 90.9261 74.7649C92.1043 75.952 93.7077 76.5533 95.6913 76.5533C97.7585 76.5533 99.4185 75.9197 100.626 74.6703C101.833 73.422 102.444 71.7326 102.444 69.6506C102.444 67.5941 101.87 65.9533 100.738 64.7747C99.6053 63.5955 98.012 62.9978 96.0033 62.9978ZM84.1854 62.9977C82.7348 62.9977 81.535 63.3687 80.6183 64.1003C79.6962 64.8362 79.2284 65.8015 79.2284 66.9694C79.2284 67.5765 79.3294 68.1158 79.5281 68.5732C79.7281 69.0322 80.0375 69.4361 80.4484 69.7752C80.8564 70.1116 81.4858 70.464 82.3203 70.8224C83.0215 71.111 83.5447 71.3552 83.877 71.5476C84.2017 71.7361 84.4324 71.9258 84.5625 72.1104C84.6889 72.291 84.7532 72.5382 84.7532 72.8435C84.7532 73.7123 84.1026 74.1349 82.7638 74.1349C82.2672 74.1349 81.7008 74.0314 81.0802 73.8269C80.4593 73.6227 79.8792 73.3291 79.3562 72.9527L79.2284 72.8611V75.8259L79.2754 75.8477C79.7112 76.0488 80.2604 76.2183 80.9079 76.3519C81.5542 76.4855 82.1414 76.5535 82.6516 76.5535C84.2256 76.5535 85.4932 76.1807 86.418 75.4448C87.3489 74.7038 87.8207 73.7158 87.8207 72.5073C87.8207 71.6357 87.5667 70.888 87.0661 70.2852C86.569 69.6872 85.7062 69.1383 84.5026 68.653C83.5438 68.2682 82.9296 67.9487 82.6763 67.7036C82.432 67.4666 82.308 67.1316 82.308 66.7074C82.308 66.3313 82.461 66.03 82.7754 65.7859C83.0922 65.5407 83.5329 65.416 84.0859 65.416C84.599 65.416 85.1241 65.497 85.646 65.6558C86.1678 65.8146 86.626 66.0273 87.0086 66.2876L87.1343 66.3736V63.5611L87.086 63.5403C86.7331 63.389 86.2678 63.2595 85.7026 63.1545C85.1397 63.0504 84.6292 62.9977 84.1854 62.9977ZM71.2001 74.0354C70.0827 74.0354 69.2012 73.6647 68.5803 72.9347C67.9553 72.2009 67.6392 71.1551 67.6392 69.8256C67.6392 68.4543 67.9556 67.3811 68.5809 66.6343C69.2018 65.8925 70.0745 65.516 71.1754 65.516C72.2429 65.516 73.0928 65.8756 73.7018 66.5853C74.3138 67.2987 74.6243 68.3634 74.6243 69.7507C74.6243 71.1551 74.3321 72.2338 73.7562 72.9553C73.1844 73.6716 72.3249 74.0354 71.2001 74.0354ZM71.3376 62.9978C69.2046 62.9978 67.5107 63.6226 66.3038 64.855C65.0969 66.0876 64.4846 67.7932 64.4846 69.925C64.4846 71.9506 65.0823 73.5784 66.2604 74.7649C67.4386 75.952 69.0418 76.5533 71.0256 76.5533C73.0923 76.5533 74.7529 75.9197 75.96 74.6703C77.1667 73.422 77.7786 71.7326 77.7786 69.6506C77.7786 67.5941 77.2046 65.9533 76.0721 64.7747C74.939 63.5955 73.346 62.9978 71.3376 62.9978ZM59.8099 65.5488V63.3094H56.7678V76.2412H59.8099V69.6261C59.8099 68.5012 60.0649 67.5772 60.5681 66.8792C61.065 66.1895 61.7271 65.84 62.5355 65.84C62.8094 65.84 63.117 65.8852 63.4501 65.9746C63.7798 66.0635 64.0187 66.1598 64.1596 66.2613L64.2873 66.354V63.2872L64.238 63.266C63.9547 63.1456 63.554 63.0849 63.0469 63.0849C62.2825 63.0849 61.5984 63.3305 61.0124 63.8141C60.4981 64.2392 60.1263 64.822 59.8421 65.5488H59.8099ZM51.3202 62.9977C49.9248 62.9977 48.6799 63.2971 47.621 63.8869C46.56 64.4781 45.7395 65.3223 45.1812 66.3958C44.6255 67.4666 44.3434 68.7175 44.3434 70.1123C44.3434 71.3341 44.617 72.4555 45.1577 73.4436C45.6987 74.4334 46.4646 75.2079 47.434 75.745C48.402 76.2815 49.5208 76.5535 50.7596 76.5535C52.2052 76.5535 53.4395 76.2644 54.4291 75.6945L54.4691 75.6715V72.8846L54.3413 72.9779C53.893 73.3044 53.392 73.565 52.853 73.7528C52.3154 73.9405 51.8251 74.0353 51.3955 74.0353C50.2018 74.0353 49.2437 73.6618 48.548 72.9256C47.8509 72.1882 47.4975 71.1529 47.4975 69.8501C47.4975 68.539 47.8661 67.4772 48.5926 66.6936C49.3167 65.9123 50.2767 65.5161 51.4456 65.5161C52.4455 65.5161 53.4199 65.8547 54.3416 66.5233L54.4691 66.616V63.6795L54.428 63.6563C54.081 63.4622 53.608 63.3019 53.0205 63.1802C52.4358 63.059 51.8639 62.9977 51.3202 62.9977ZM42.2482 63.3094H39.2062V76.2412H42.2482V63.3094ZM40.7583 57.8003C40.2576 57.8003 39.821 57.9707 39.4622 58.3085C39.102 58.6472 38.9191 59.0737 38.9191 59.5769C38.9191 60.0722 39.0998 60.4908 39.4564 60.8205C39.8109 61.1492 40.2489 61.3159 40.7583 61.3159C41.2674 61.3159 41.7072 61.1492 42.0659 60.821C42.427 60.4908 42.61 60.0722 42.61 59.5769C42.61 59.0912 42.432 58.6691 42.0807 58.3221C41.73 57.9758 41.285 57.8003 40.7583 57.8003ZM33.1683 62.3553V76.2412H36.2728V58.1963H31.9762L26.5147 71.5995L21.2147 58.1963H16.7431V76.2412H19.6605V62.3539H19.7608L25.3573 76.2412H27.559L33.0682 62.3553H33.1683Z" fill="#4F5665"/>
<path d="M64.9507 32.0514H50.6404V17.7411H64.9507V32.0514Z" fill="#4F5665"/>
<path d="M80.7507 32.0514H66.4406V17.7411H80.7507V32.0514Z" fill="#4F5665"/>
<path d="M64.9504 47.8573H50.6404V33.5471H64.9504V47.8573Z" fill="#4F5665"/>
<path d="M80.7507 47.8573H66.4406V33.5471H80.7507V47.8573Z" fill="#4F5665"/>
</svg>
