<svg width="25" height="25" viewBox="0 0 25 25" fill="none" xmlns="http://www.w3.org/2000/svg">
<path d="M4.78584 4.09509C4.58592 4.29501 4.51929 4.62819 4.51929 5.02802V19.755C4.51929 20.1548 4.65256 20.488 4.85248 20.6879L4.91911 20.7545L13.1822 12.4915V12.3582L4.78584 4.09509Z" fill="url(#paint0_linear_5_526)"/>
<path d="M15.8476 15.2902L13.1155 12.558V12.3581L15.8476 9.62598L15.9143 9.69261L19.1795 11.5585C20.1124 12.0916 20.1124 12.9579 19.1795 13.491L15.8476 15.2902V15.2902Z" fill="url(#paint1_linear_5_526)"/>
<path d="M15.9144 15.2236L13.1156 12.4248L4.78589 20.7545C5.11908 21.0877 5.58554 21.0877 6.18528 20.8212L15.9144 15.2236" fill="url(#paint2_linear_5_526)"/>
<path d="M15.9144 9.62603L6.18528 4.09509C5.58554 3.7619 5.11908 3.82854 4.78589 4.16173L13.1156 12.4248L15.9144 9.62603V9.62603Z" fill="url(#paint3_linear_5_526)"/>
<path opacity="0.2" d="M15.8478 15.1569L6.18528 20.6212C5.65218 20.9544 5.18572 20.8878 4.85253 20.6212L4.78589 20.6879L4.85253 20.7545C5.18572 21.021 5.65218 21.0877 6.18528 20.7545L15.8478 15.1569Z" fill="black"/>
<path opacity="0.2" d="M4.78584 20.6212C4.58592 20.4213 4.51929 20.0881 4.51929 19.6883V19.755C4.51929 20.1548 4.65256 20.488 4.85248 20.6879V20.6212H4.78584ZM19.1796 13.2911L15.8477 15.157L15.9143 15.2236L19.1796 13.3577C19.6461 13.0912 19.846 12.758 19.846 12.4248C19.846 12.758 19.5794 13.0245 19.1796 13.2911V13.2911Z" fill="black"/>
<path opacity="0.2" d="M6.18523 4.16173L19.1796 11.5585C19.5794 11.8251 19.846 12.0916 19.846 12.4248C19.846 12.0916 19.6461 11.7584 19.1796 11.4919L6.18523 4.09509C5.2523 3.56199 4.51929 3.96181 4.51929 5.02802V5.09466C4.51929 4.09509 5.2523 3.62863 6.18523 4.16173Z" fill="white"/>
<defs>
<linearGradient id="paint0_linear_5_526" x1="12.3825" y1="4.90141" x2="1.19873" y2="16.0846" gradientUnits="userSpaceOnUse">
<stop stop-color="#00A0FF"/>
<stop offset="0.007" stop-color="#00A1FF"/>
<stop offset="0.26" stop-color="#00BEFF"/>
<stop offset="0.512" stop-color="#00D2FF"/>
<stop offset="0.76" stop-color="#00DFFF"/>
<stop offset="1" stop-color="#00E3FF"/>
</linearGradient>
<linearGradient id="paint1_linear_5_526" x1="20.4017" y1="12.4254" x2="4.27731" y2="12.4254" gradientUnits="userSpaceOnUse">
<stop stop-color="#FFE000"/>
<stop offset="0.409" stop-color="#FFBD00"/>
<stop offset="0.775" stop-color="#FFA500"/>
<stop offset="1" stop-color="#FF9C00"/>
</linearGradient>
<linearGradient id="paint2_linear_5_526" x1="14.3997" y1="13.9548" x2="-0.765704" y2="29.1202" gradientUnits="userSpaceOnUse">
<stop stop-color="#FF3A44"/>
<stop offset="1" stop-color="#C31162"/>
</linearGradient>
<linearGradient id="paint3_linear_5_526" x1="2.71812" y1="-0.785458" x2="9.49052" y2="5.98694" gradientUnits="userSpaceOnUse">
<stop stop-color="#32A071"/>
<stop offset="0.069" stop-color="#2DA771"/>
<stop offset="0.476" stop-color="#15CF74"/>
<stop offset="0.801" stop-color="#06E775"/>
<stop offset="1" stop-color="#00F076"/>
</linearGradient>
</defs>
</svg>
