<svg width="24" height="25" viewBox="0 0 24 25" fill="none" xmlns="http://www.w3.org/2000/svg">
<path fill-rule="evenodd" clip-rule="evenodd" d="M9.59151 15.7068C13.2805 15.7068 16.4335 16.2658 16.4335 18.4988C16.4335 20.7318 13.3015 21.3068 9.59151 21.3068C5.90151 21.3068 2.74951 20.7528 2.74951 18.5188C2.74951 16.2848 5.88051 15.7068 9.59151 15.7068Z" stroke="#4F5665" stroke-width="1.5" stroke-linecap="round" stroke-linejoin="round"/>
<path fill-rule="evenodd" clip-rule="evenodd" d="M9.59157 12.5198C7.16957 12.5198 5.20557 10.5568 5.20557 8.1348C5.20557 5.7128 7.16957 3.7498 9.59157 3.7498C12.0126 3.7498 13.9766 5.7128 13.9766 8.1348C13.9856 10.5478 12.0356 12.5108 9.62257 12.5198H9.59157Z" stroke="#4F5665" stroke-width="1.5" stroke-linecap="round" stroke-linejoin="round"/>
<path d="M16.4829 11.3816C18.0839 11.1566 19.3169 9.7826 19.3199 8.1196C19.3199 6.4806 18.1249 5.1206 16.5579 4.8636" stroke="#4F5665" stroke-width="1.5" stroke-linecap="round" stroke-linejoin="round"/>
<path d="M18.5952 15.2322C20.1462 15.4632 21.2292 16.0072 21.2292 17.1272C21.2292 17.8982 20.7192 18.3982 19.8952 18.7112" stroke="#4F5665" stroke-width="1.5" stroke-linecap="round" stroke-linejoin="round"/>
</svg>
