<svg width="58" height="59" viewBox="0 0 58 59" fill="none" xmlns="http://www.w3.org/2000/svg">
<circle cx="29" cy="29.5" r="29" fill="#2948FF"/>
<path fill-rule="evenodd" clip-rule="evenodd" d="M29.8205 16.3007L38.6772 19.3232C39.6678 19.6619 40.3333 20.5739 40.3333 21.5952V30.4496C40.3333 33.1336 39.3358 35.7322 37.526 37.7601C36.6973 38.6894 35.6339 39.4881 34.2756 40.2027L29.4884 42.716C29.3389 42.7933 29.1742 42.8333 29.0082 42.8333C28.8435 42.8333 28.6789 42.7933 28.5293 42.716L23.7326 40.2014C22.3715 39.4854 21.3067 38.6868 20.4794 37.7614C18.6669 35.7308 17.6666 33.1309 17.6666 30.4443C17.6666 29.903 18.1194 29.463 18.6765 29.463C19.2335 29.463 19.6863 29.903 19.6863 30.4443C19.6863 32.6602 20.5096 34.8015 22.0038 36.4762C22.6692 37.2215 23.5487 37.8748 24.6916 38.4748L29.0082 40.7374L33.3151 38.4761C34.4553 37.8774 35.3348 37.2241 36.0017 36.4762C37.4931 34.8029 38.315 32.6642 38.315 30.4496V21.5952C38.315 21.4059 38.1915 21.2379 38.009 21.1752L29.1523 18.1526C29.0548 18.1193 28.9464 18.1193 28.8477 18.1526L19.9923 21.1752C19.8098 21.2379 19.6863 21.4059 19.6863 21.5952V24.1285C19.6863 24.6711 19.2335 25.1111 18.6765 25.1111C18.1194 25.1111 17.6666 24.6711 17.6666 24.1285V21.5952C17.6666 20.5739 18.3335 19.6619 19.3241 19.3232L28.1795 16.3007C28.7091 16.122 29.2922 16.122 29.8205 16.3007ZM28.0483 32.59C27.7794 32.59 27.5242 32.486 27.3348 32.302L24.7882 29.8274C24.3945 29.4434 24.3945 28.8247 24.7882 28.4407C25.1834 28.0568 25.8214 28.0568 26.2152 28.4407L28.0483 30.2207L32.5789 25.8195C32.9727 25.4368 33.612 25.4368 34.0058 25.8195C34.3996 26.2021 34.3996 26.8235 34.0058 27.2061L28.7618 32.302C28.5724 32.486 28.3158 32.59 28.0483 32.59Z" fill="white"/>
</svg>
