<svg width="48" height="49" viewBox="0 0 48 49" fill="none" xmlns="http://www.w3.org/2000/svg">
<circle cx="24" cy="24.5" r="24" fill="white"/>
<path d="M17.3795 23.3965C17.1612 23.3965 16.9479 23.4612 16.7664 23.5824C16.585 23.7037 16.4435 23.876 16.36 24.0777C16.2765 24.2793 16.2547 24.5011 16.2972 24.7152C16.3398 24.9292 16.4449 25.1259 16.5992 25.2802C16.7535 25.4345 16.9502 25.5396 17.1642 25.5822C17.3783 25.6247 17.6001 25.6029 17.8018 25.5194C18.0034 25.4359 18.1757 25.2944 18.297 25.113C18.4182 24.9315 18.4829 24.7182 18.4829 24.4999C18.4829 24.2073 18.3667 23.9266 18.1597 23.7197C17.9528 23.5127 17.6721 23.3965 17.3795 23.3965ZM30.6209 23.3965C30.4026 23.3965 30.1893 23.4612 30.0078 23.5824C29.8264 23.7037 29.6849 23.876 29.6014 24.0777C29.5179 24.2793 29.496 24.5011 29.5386 24.7152C29.5812 24.9292 29.6863 25.1259 29.8406 25.2802C29.9949 25.4345 30.1915 25.5396 30.4056 25.5822C30.6196 25.6247 30.8415 25.6029 31.0431 25.5194C31.2448 25.4359 31.4171 25.2944 31.5383 25.113C31.6596 24.9315 31.7243 24.7182 31.7243 24.4999C31.7243 24.2073 31.6081 23.9266 31.4011 23.7197C31.1942 23.5127 30.9135 23.3965 30.6209 23.3965ZM32.8278 16.7758H15.1726C14.2946 16.7758 13.4526 17.1246 12.8318 17.7454C12.211 18.3662 11.8622 19.2082 11.8622 20.0861V28.9137C11.8622 29.7917 12.211 30.6337 12.8318 31.2545C13.4526 31.8753 14.2946 32.2241 15.1726 32.2241H32.8278C33.7057 32.2241 34.5477 31.8753 35.1685 31.2545C35.7893 30.6337 36.1381 29.7917 36.1381 28.9137V20.0861C36.1381 19.2082 35.7893 18.3662 35.1685 17.7454C34.5477 17.1246 33.7057 16.7758 32.8278 16.7758ZM33.9312 28.9137C33.9312 29.2064 33.8149 29.487 33.608 29.694C33.4011 29.9009 33.1204 30.0172 32.8278 30.0172H15.1726C14.8799 30.0172 14.5993 29.9009 14.3923 29.694C14.1854 29.487 14.0691 29.2064 14.0691 28.9137V20.0861C14.0691 19.7935 14.1854 19.5128 14.3923 19.3059C14.5993 19.0989 14.8799 18.9827 15.1726 18.9827H32.8278C33.1204 18.9827 33.4011 19.0989 33.608 19.3059C33.8149 19.5128 33.9312 19.7935 33.9312 20.0861V28.9137ZM24.0002 21.1896C23.3454 21.1896 22.7054 21.3837 22.161 21.7475C21.6167 22.1112 21.1924 22.6282 20.9418 23.2331C20.6913 23.838 20.6257 24.5036 20.7534 25.1457C20.8812 25.7879 21.1964 26.3777 21.6594 26.8407C22.1224 27.3037 22.7122 27.6189 23.3544 27.7467C23.9965 27.8744 24.6621 27.8088 25.267 27.5583C25.8719 27.3077 26.3889 26.8834 26.7526 26.3391C27.1164 25.7947 27.3105 25.1546 27.3105 24.4999C27.3105 23.622 26.9617 22.78 26.3409 22.1592C25.7201 21.5383 24.8781 21.1896 24.0002 21.1896ZM24.0002 25.6034C23.7819 25.6034 23.5686 25.5387 23.3871 25.4174C23.2057 25.2962 23.0642 25.1238 22.9807 24.9222C22.8972 24.7206 22.8753 24.4987 22.9179 24.2847C22.9605 24.0706 23.0656 23.874 23.2199 23.7197C23.3742 23.5653 23.5708 23.4603 23.7849 23.4177C23.9989 23.3751 24.2208 23.397 24.4224 23.4805C24.6241 23.564 24.7964 23.7054 24.9177 23.8869C25.0389 24.0683 25.1036 24.2817 25.1036 24.4999C25.1036 24.7926 24.9874 25.0732 24.7804 25.2802C24.5735 25.4871 24.2928 25.6034 24.0002 25.6034Z" fill="#2948FF"/>
</svg>
