<svg width="14" height="13" viewBox="0 0 14 13" fill="none" xmlns="http://www.w3.org/2000/svg">
<path d="M13.4554 4.63128L9.48826 4.05472L7.71482 0.459405C7.66639 0.360968 7.5867 0.28128 7.48826 0.232843C7.24139 0.110968 6.94139 0.21253 6.81795 0.459405L5.04451 4.05472L1.07732 4.63128C0.967949 4.64691 0.867949 4.69847 0.791387 4.77659C0.698827 4.87173 0.647822 4.99972 0.64958 5.13244C0.651338 5.26516 0.705715 5.39176 0.800762 5.48441L3.67107 8.28284L2.99295 12.2344C2.97705 12.3263 2.98722 12.4209 3.02231 12.5073C3.0574 12.5937 3.11601 12.6686 3.19149 12.7234C3.26697 12.7783 3.3563 12.8108 3.44935 12.8175C3.54241 12.8241 3.63545 12.8045 3.71795 12.761L7.26639 10.8953L10.8148 12.761C10.9117 12.8125 11.0242 12.8297 11.132 12.811C11.4039 12.7641 11.5867 12.5063 11.5398 12.2344L10.8617 8.28284L13.732 5.48441C13.8101 5.40784 13.8617 5.30784 13.8773 5.19847C13.9195 4.92503 13.7289 4.67191 13.4554 4.63128V4.63128Z" fill="#FF8906"/>
</svg>
