<svg width="20" height="22" viewBox="0 0 20 22" fill="none" xmlns="http://www.w3.org/2000/svg">
<mask id="mask0_1425_252" style="mask-type:luminance" maskUnits="userSpaceOnUse" x="0" y="7" width="20" height="15">
<path fill-rule="evenodd" clip-rule="evenodd" d="M0.000488281 7.2941H20.0001V21.0381H0.000488281V7.2941Z" fill="white"/>
</mask>
<g mask="url(#mask0_1425_252)">
<path fill-rule="evenodd" clip-rule="evenodd" d="M15.5655 21.0381H4.43549C1.99049 21.0381 0.000488281 19.0491 0.000488281 16.6031V11.7281C0.000488281 9.2831 1.99049 7.2941 4.43549 7.2941H5.36849C5.78249 7.2941 6.11849 7.6301 6.11849 8.0441C6.11849 8.4581 5.78249 8.7941 5.36849 8.7941H4.43549C2.81649 8.7941 1.50049 10.1101 1.50049 11.7281V16.6031C1.50049 18.2221 2.81649 19.5381 4.43549 19.5381H15.5655C17.1835 19.5381 18.5005 18.2221 18.5005 16.6031V11.7191C18.5005 10.1061 17.1885 8.7941 15.5765 8.7941H14.6335C14.2195 8.7941 13.8835 8.4581 13.8835 8.0441C13.8835 7.6301 14.2195 7.2941 14.6335 7.2941H15.5765C18.0155 7.2941 20.0005 9.2791 20.0005 11.7191V16.6031C20.0005 19.0491 18.0105 21.0381 15.5655 21.0381Z" fill="#4F5665"/>
</g>
<mask id="mask1_1425_252" style="mask-type:luminance" maskUnits="userSpaceOnUse" x="9" y="0" width="2" height="15">
<path fill-rule="evenodd" clip-rule="evenodd" d="M9.25 0.500092H10.75V14.041H9.25V0.500092Z" fill="white"/>
</mask>
<g mask="url(#mask1_1425_252)">
<path fill-rule="evenodd" clip-rule="evenodd" d="M10 14.041C9.586 14.041 9.25 13.705 9.25 13.291V1.25C9.25 0.836 9.586 0.5 10 0.5C10.414 0.5 10.75 0.836 10.75 1.25V13.291C10.75 13.705 10.414 14.041 10 14.041Z" fill="#4F5665"/>
</g>
<path fill-rule="evenodd" clip-rule="evenodd" d="M7.0852 4.92868C6.8942 4.92868 6.7022 4.85568 6.5562 4.70968C6.2632 4.41768 6.2612 3.94368 6.5542 3.64968L9.4692 0.72168C9.7502 0.43868 10.2502 0.43868 10.5312 0.72168L13.4472 3.64968C13.7392 3.94368 13.7382 4.41768 13.4452 4.70968C13.1512 5.00168 12.6772 5.00168 12.3852 4.70768L10.0002 2.31368L7.6162 4.70768C7.4702 4.85568 7.2772 4.92868 7.0852 4.92868Z" fill="#4F5665"/>
</svg>
